<?xml version="1.0" encoding="utf-8"?>
<!-- Generator: Adobe Illustrator 19.0.0, SVG Export Plug-In . SVG Version: 6.00 Build 0)  -->
<svg version="1.1" id="Layer_1" xmlns="http://www.w3.org/2000/svg" xmlns:xlink="http://www.w3.org/1999/xlink" x="0px" y="0px"
	 viewBox="0 0 960 560" style="enable-background:new 0 0 960 560;" xml:space="preserve">
<style type="text/css">
	.st0{opacity:0.2;}
	.st1{fill:#FCEE21;}
</style>
<g class="st0">
	<path class="st1" d="M432.8,541.1c-1.2,0-3.5,0-4.7-0.9c-7.1-1.8-11.8-6.3-12.9-11.7l-27.1-232.6l-38.8,16.2
		c-5.9,2.7-12.9,1.8-18.8-0.9l-271.8-146c-5.9-3.6-8.2-9-7.1-14.4c1.2-5.4,7.1-9.9,15.3-9.9l812.9-89.3c7.1-0.9,14.1,1.8,17.6,6.3
		c3.5,4.5,3.5,10.8-1.2,15.3L446.9,535.7C444.6,539.3,438.7,541.1,432.8,541.1z M421.1,277l24.7,214.6l371.7-383.1L421.1,277z
		 M116.4,162.5l220,119L790.5,88.5L116.4,162.5z"/>
</g>
</svg>
